PathFileType	4	(X/Y/Z)	D:\TRACE\spot_10-12-23\spot_body_motion_3_3-platform.trc
DataRate	CameraRate	NumFrames	NumMarkers	Units	OrigDataRate	OrigDataStartFrame	OrigNumFrames
100.00	100.00	      37	5	mm	100.00	876	      7000
Frame#	Time	Left_Front			Right_Front			Left_Aft			Right_Aft			Post			
		X1	Y1	Z1	X2	Y2	Z2	X3	Y3	Z3	X4	Y4	Z4	X5	Y5	Z5	

876	8.750	-775.36194	-25.01089	-648.28638	797.24268	-20.09995	-641.44452	-692.58063	26.56925	488.47559	724.30267	35.33994	574.51978	7.53208	696.85529	-1000.15784	
877	8.760	-774.90247	-25.18381	-648.54712	797.25195	-19.92157	-641.43915	-692.55890	26.48343	488.55386	724.16840	35.16375	574.66016	7.47568	697.21112	-999.90509	
878	8.770	-775.04926	-24.96876	-648.24139	797.18469	-19.76249	-641.43976	-692.55762	26.33099	488.59219	723.90729	34.92281	574.80988	7.39343	697.66968	-999.54010	
879	8.780	-775.17267	-24.73460	-648.17145	797.11407	-19.53782	-641.45697	-692.57300	26.20640	488.67374	723.83313	34.70595	574.83826	7.48687	698.07971	-999.28601	
880	8.790	-775.21759	-24.44924	-648.13831	797.07880	-19.24165	-641.47302	-692.61554	26.09535	488.75107	723.71191	34.40287	574.82410	7.46103	698.45209	-999.00995	
881	8.800	-775.45752	-23.81783	-647.94019	797.04822	-18.96256	-641.37402	-692.62592	25.90729	488.87634	723.78955	34.22763	574.92920	7.43164	698.94348	-998.64606	
882	8.810	-775.50067	-23.46339	-647.91254	797.05762	-18.64316	-641.26959	-692.59442	25.74957	489.02118	723.84357	34.09618	575.01056	7.33978	699.24176	-998.34113	
883	8.820	-775.50476	-23.12283	-647.87891	797.14032	-18.41651	-641.15698	-692.65948	25.51726	488.95755	723.72852	33.82485	575.05981	7.29970	699.52704	-998.23450	
884	8.830	-775.51685	-22.86090	-647.78363	797.14868	-18.11061	-641.00641	-692.75037	25.35564	489.02585	723.69293	33.62415	575.10632	7.26498	699.72693	-998.04803	
885	8.840	-775.49762	-22.64476	-647.72144	797.16168	-17.87194	-640.93579	-692.80585	25.16893	489.09097	724.50067	33.64317	574.97571	7.24114	700.15833	-997.73444	
886	8.850	-775.49432	-22.46358	-647.67737	797.16418	-17.64673	-640.94403	-692.79883	25.00902	489.17157	724.48193	33.50200	575.04639	7.25641	700.58716	-997.48016	
887	8.860	-775.42078	-22.30829	-647.69318	797.15179	-17.42358	-641.01086	-692.78735	24.89179	489.21686	724.51532	33.30069	575.15649	7.35164	701.03949	-997.00232	
888	8.870	-775.37567	-22.18619	-647.66602	797.11627	-17.24372	-641.04309	-692.74768	24.71748	489.25339	724.49780	33.10261	575.26910	7.32817	701.45221	-996.60638	
889	8.880	-775.38525	-22.09841	-647.64740	797.06970	-17.12585	-641.06183	-692.70874	24.59236	489.30969	724.51001	32.96393	575.34979	7.40998	701.70203	-996.16901	
890	8.890	-775.41876	-22.02312	-647.65613	797.08209	-17.00591	-641.03693	-692.69110	24.46713	489.33652	724.57227	32.76628	575.38074	7.46981	701.86505	-995.86560	
891	8.900	-775.41010	-21.82199	-647.53497	797.08093	-16.78656	-640.95233	-692.62598	24.23361	489.45035	724.59662	32.60128	575.38898	7.48112	701.98920	-995.73163	
892	8.910	-775.40076	-21.56569	-647.54095	797.06158	-16.61640	-640.90924	-692.57874	24.10255	489.51962	724.65863	32.46312	575.41003	7.47031	702.30432	-995.50153	
893	8.920	-775.36243	-21.34177	-647.52454	797.10687	-16.37154	-640.75226	-692.57947	23.99764	489.62131	724.68915	32.35152	575.43964	7.48969	702.72839	-995.31750	
894	8.930	-775.35321	-20.93995	-647.47406	797.12152	-16.10573	-640.73438	-692.54376	23.89072	489.68988	724.78717	32.17020	575.51099	7.58925	703.13593	-995.20667	
895	8.940	-775.22479	-20.71191	-647.44275	797.14526	-15.79493	-640.68707	-692.46289	23.78071	489.72412	724.86420	31.97823	575.55115	7.61527	703.50470	-995.04419	
896	8.950	-775.07904	-20.53232	-647.41608	797.27338	-15.59363	-640.59320	-692.27820	23.73055	489.72485	724.99219	31.76646	575.68018	7.64035	703.74200	-994.81494	
897	8.960	-774.82520	-20.46947	-647.36407	797.32684	-15.45706	-640.58087	-692.09857	23.65098	489.76877	725.19562	31.63383	575.77240	7.68486	703.98505	-994.58734	
898	8.970	-774.76361	-20.35664	-647.30188	797.56683	-15.40465	-640.50830	-691.96112	23.54063	489.77020	725.33398	31.53899	575.84485	7.79180	704.19104	-994.34985	
899	8.980	-774.58624	-20.33248	-647.28900	797.47394	-15.18165	-640.64111	-691.88116	23.48071	489.80359	725.41376	31.47413	575.91510	7.84071	704.35260	-994.13727	
900	8.990	-774.48517	-20.24367	-647.27136	797.70087	-15.10193	-640.52863	-691.82642	23.38848	489.78870	725.47223	31.39078	575.93536	8.01122	704.59344	-993.77283	
901	9.000	-774.41595	-20.13146	-647.25128	797.69348	-15.00994	-640.51337	-691.74957	23.31200	489.85266	725.57684	31.30078	575.93219	8.14813	704.78522	-993.47931	
902	9.010	-774.41449	-19.95496	-647.22363	797.85492	-14.84989	-640.43787	-691.68518	23.24037	489.85495	725.63611	31.22623	575.92133	8.27037	704.98291	-993.29553	
903	9.020	-774.19525	-19.87787	-647.15283	797.93036	-14.74503	-640.45068	-691.54291	23.13375	489.82837	725.81122	31.13730	575.94995	8.49132	705.26642	-993.05750	
904	9.030	-773.90070	-19.63719	-647.26007	798.17084	-14.56596	-640.35669	-691.33466	23.01674	489.92096	725.98749	31.04358	575.97656	8.65909	705.54242	-992.92578	
905	9.040	-773.81622	-19.33290	-647.22919	798.44910	-14.33931	-640.23267	-691.12909	22.86638	489.94617	726.24084	30.91611	575.99707	8.82017	705.69171	-992.80518	
906	9.050	-773.89697	-18.95165	-647.13092	798.66467	-14.23932	-640.28436	-690.93005	22.77484	489.98981	726.42938	30.80000	576.01825	8.87558	705.81964	-992.76050	
907	9.060	-773.73401	-18.84159	-647.15271	798.95325	-14.15584	-640.28381	-690.73804	22.63993	490.03094	726.58075	30.67121	576.06842	8.99264	705.90265	-992.67395	
908	9.070	-773.49829	-18.70773	-647.15112	799.09869	-14.02808	-640.40039	-690.56934	22.59848	490.07520	726.73914	30.57470	576.10803	9.21233	706.05896	-992.58716	
909	9.080	-773.34839	-18.68991	-647.10883	799.44244	-13.86173	-640.30389	-690.42578	22.48965	489.99515	726.91040	30.49055	576.10486	9.39496	706.15485	-992.51093	
910	9.090	-773.26880	-18.57528	-647.09381	799.64801	-13.77734	-640.26331	-690.21143	22.44242	490.06564	727.05652	30.42564	576.12897	9.53404	706.26605	-992.45319	
911	9.100	-773.15509	-18.46950	-647.07758	799.81604	-13.76056	-640.19122	-689.99664	22.38798	490.11115	727.30701	30.35906	576.11005	9.74682	706.41718	-992.38660	
912	9.110	-772.90747	-18.49527	-647.02960	799.90369	-13.77310	-640.18646	-689.79047	22.39621	490.22153	727.47803	30.29403	576.12427	9.88832	706.49683	-992.31165	
